<svg xmlns="http://www.w3.org/2000/svg" xmlns:xlink="http://www.w3.org/1999/xlink" width="60" height="48" viewBox="0 0 60 48">
  <defs>
    <path id="icon-comment-groups-a" d="M27.16664,6 L53.99996,6 C57.3137,6 60,8.69118 60,12.01758 L60,41.982424 C60,45.30584 57.30536,48 53.99996,48 L6.000038,48 C2.686308,48 0,45.30882 0,41.982424 L0,3.99922 C0,1.79052 1.79412,0 4.011718,0 L18.00994,0 C22.10466,0 25.62398,2.47214 27.16664,6 Z M38.656,14.896 C36.768,13.904 34.51202,13.408 31.888,13.408 C28.09064,13.408 24.94402,14.272 22.448,16 C19.95198,17.728 18.12268,19.87732 16.96,22.448 C15.797328,25.01868 15.216,27.57332 15.216,30.112 C15.216,32.60802 15.770662,34.832 16.88,36.784 C17.989338,38.73601 19.55732,40.255994 21.584,41.344 C23.61068,42.432006 25.95732,42.976 28.624,42.976 C30.97068,42.976 33.34932,42.549338 35.76,41.696 L35.056,38.72 C32.94398,39.46667 30.896,39.84 28.912,39.84 C26.84266,39.84 25.06668,39.41867 23.584,38.576 C22.10132,37.73333 20.976,36.576008 20.208,35.104 C19.44,33.632 19.056,31.95734 19.056,30.08 C19.056,27.96798 19.46132,25.87734 20.272,23.808 C21.08268,21.73866 22.42666,20.00534 24.304,18.608 C26.18134,17.21066 28.63466,16.512 31.664,16.512 C34.58668,16.512 36.816,17.19466 38.352,18.56 C39.888,19.92534 40.656,21.88798 40.656,24.448 C40.656,25.68534 40.51734,26.96532 40.24,28.288 C39.96266,29.61068 39.51466,30.736 38.896,31.664 C38.27734,32.592 37.488,33.056 36.528,33.056 C36.016,33.056 35.65334,32.91734 35.44,32.64 C35.22666,32.36266 35.12,31.95734 35.12,31.424 C35.12,31.12534 35.13066,30.89066 35.152,30.72 L36.368,21.472 C34.81066,20.53332 33.11468,20.064 31.28,20.064 C29.31732,20.064 27.712,20.58132 26.464,21.616 C25.216,22.65068 24.31466,23.936 23.76,25.472 C23.20534,27.008 22.928,28.55466 22.928,30.112 C22.928,31.81868 23.34932,33.17866 24.192,34.192 C25.03468,35.20534 26.256,35.712 27.856,35.712 C28.944,35.712 29.888,35.424 30.688,34.848 C31.488,34.272 32.144,33.52534 32.656,32.608 C32.74134,33.44 33.136,34.18134 33.84,34.832 C34.544,35.48266 35.472,35.808 36.624,35.808 C38.416,35.808 39.89332,35.216 41.056,34.032 C42.21868,32.848 43.06666,31.39734 43.6,29.68 C44.13334,27.96266 44.4,26.29334 44.4,24.672 C44.4,22.55998 43.91468,20.65068 42.944,18.944 C41.97332,17.23732 40.544,15.888 38.656,14.896 Z M30.448,32.272 C29.936,32.752 29.28534,32.992 28.496,32.992 C27.25866,32.992 26.64,32.16 26.64,30.496 C26.64,28.49066 26.98132,26.704 27.664,25.136 C28.34668,23.568 29.47732,22.784 31.056,22.784 C31.71734,22.784 32.28266,22.90134 32.752,23.136 L31.664,30.688 C31.36534,31.264 30.96,31.792 30.448,32.272 Z"/>
  </defs>
  <g fill="none" fill-rule="evenodd">
    <use fill="#FFF" xlink:href="#icon-comment-groups-a"/>
  </g>
</svg>
