<svg xmlns="http://www.w3.org/2000/svg" width="53" height="58" viewBox="0 0 53 58">
  <g fill="#FFF" fill-rule="evenodd" transform="translate(0 1)">
    <path fill-opacity=".6" d="M27.3639248,6.82952836 L51.7802157,35.9277308 C52.4901543,36.7738026 52.3775621,38.0258501 51.535551,38.7323813 L41.9140808,46.8057534 L27.3639248,6.82952836 Z"/>
    <path fill-opacity=".8" d="M21.5925926,-0.581972002 C21.8061061,-0.377674937 21.9772282,-0.122579821 22.085088,0.173762599 L39.5459153,48.1469914 C39.9236657,49.1848522 39.3896382,50.3228832 38.3567587,50.6988206 L23.6513282,56.0511595 C22.9169216,56.3184617 22.1236389,56.124578 21.5925926,55.6164548 L21.5925926,-0.581972002 Z"/>
    <path d="M1.99021869,0 L17.6394109,0 C18.7351773,0 19.6296296,0.891499331 19.6296296,1.99121949 L19.6296296,53.0432633 C19.6296296,54.1477316 18.7385784,55.0344828 17.6394109,55.0344828 L1.99021869,55.0344828 C0.894452333,55.0344828 0,54.1429834 0,53.0432633 L0,1.99121949 C0,0.886751143 0.891051257,0 1.99021869,0 Z M9.81481481,10.8103448 C11.4409866,10.8103448 12.7592593,9.49035676 12.7592593,7.86206897 C12.7592593,6.23378117 11.4409866,4.9137931 9.81481481,4.9137931 C8.18864305,4.9137931 6.87037037,6.23378117 6.87037037,7.86206897 C6.87037037,9.49035676 8.18864305,10.8103448 9.81481481,10.8103448 Z"/>
  </g>
</svg>
