<svg xmlns="http://www.w3.org/2000/svg" width="56" height="60" viewBox="0 0 56 60">
  <g fill="#FFF" fill-rule="evenodd">
    <path d="M4.48415635,5.22285388 L41.9178048,0.0244718784 C41.9178048,0.0244718784 46.3376263,-0.15793191 47.1300626,3.73158302 C47.9224973,7.62109795 55.8559271,47.8735536 55.8559271,47.8735536 C55.8559271,47.8735536 56.4982508,52.9990245 51.5322255,53.7869181 C46.5662002,54.5748116 12.5371703,59.8773883 12.5371703,59.8773883 C12.5371703,59.8773883 7.38243429,60.887547 6.56527516,55.6321481 C5.74811625,50.3767492 0.775026911,15.3713671 0.107474435,10.4943992 C-0.560077812,5.61743134 4.48415635,5.22285388 4.48415635,5.22285388 Z M23.4768568,6.58772874 C23.9227272,6.58772874 24.2841765,6.22627942 24.2841765,5.78040904 C24.2841765,5.33453866 23.9227272,4.97308934 23.4768568,4.97308934 C23.0309865,4.97308934 22.6695371,5.33453866 22.6695371,5.78040904 C22.6695371,6.22627942 23.0309865,6.58772874 23.4768568,6.58772874 Z M6.75879512,11.3156208 L12.8098647,52.1210643 L48.9124576,46.3980648 L41.1527541,6.27186491 L6.75879512,11.3156208 Z"/>
    <polygon points="8.329 12.648 40.161 7.98 47.342 45.116 13.929 50.413" opacity=".699"/>
  </g>
</svg>
