<svg xmlns="http://www.w3.org/2000/svg" width="68" height="68" viewBox="0 0 68 68">
  <g fill="#FFF" fill-rule="evenodd">
    <path d="M34,68 C15.2223176,68 0,52.7776824 0,34 C0,15.2223176 15.2223176,0 34,0 C52.7776824,0 68,15.2223176 68,34 C68,52.7776824 52.7776824,68 34,68 Z M34.1365462,62.5381526 C49.8977334,62.5381526 62.6746988,49.7611873 62.6746988,34 C62.6746988,18.2388127 49.8977334,5.46184739 34.1365462,5.46184739 C18.3753589,5.46184739 5.59839357,18.2388127 5.59839357,34 C5.59839357,49.7611873 18.3753589,62.5381526 34.1365462,62.5381526 Z"/>
    <path d="M34.1365462,61.5823293 C18.9032456,61.5823293 6.55421687,49.2333006 6.55421687,34 C6.55421687,18.7666994 18.9032456,6.41767068 34.1365462,6.41767068 C49.3698468,6.41767068 61.7188755,18.7666994 61.7188755,34 C61.7188755,49.2333006 49.3698468,61.5823293 34.1365462,61.5823293 Z M34.0682731,58.9879518 C47.8310323,58.9879518 58.9879518,47.8310323 58.9879518,34.0682731 C58.9879518,20.3055139 47.8310323,9.14859438 34.0682731,9.14859438 C20.3055139,9.14859438 9.14859438,20.3055139 9.14859438,34.0682731 C9.14859438,47.8310323 20.3055139,58.9879518 34.0682731,58.9879518 Z"/>
    <path d="M11.4905023,28.4430543 C14.0290155,18.375568 23.1442681,10.9236948 33.9999999,10.9236948 C44.8905872,10.9236948 54.0295007,18.4234978 56.5337458,28.540109 C50.7721845,26.263311 42.7543751,24.8514059 33.887962,24.8514059 C25.1482235,24.8514059 17.2330139,26.2232553 11.4905023,28.4430543 L11.4905023,28.4430543 Z" opacity=".3"/>
    <g transform="translate(7.92 15.43)">
      <g transform="translate(3.55 3.55)">
        <rect width="45.06" height="3.55" fill-opacity=".5"/>
        <circle cx="22.546" cy="29.211" r="5.725"/>
      </g>
      <g transform="translate(0 13.518)">
        <rect width="52.707" height="3.55" y="3.55" fill-opacity=".5"/>
        <circle cx="38.219" cy="5.725" r="5.725"/>
      </g>
      <g transform="translate(3.687)">
        <rect width="45.06" height="3.55" y="30.586" fill-opacity=".5"/>
        <circle cx="17.021" cy="5.725" r="5.725"/>
      </g>
    </g>
  </g>
</svg>
