<svg xmlns="http://www.w3.org/2000/svg" width="42" height="45" viewBox="0 0 42 45">
  <g fill="#FFF" fill-rule="evenodd">
    <path d="M7.5,1.33226763e-15 L2.98686646,1.33226763e-15 C1.34984627,1.33226763e-15 0,1.34174426 0,2.99686968 L0,6.00313032 C0,7.65260907 1.33726567,9 2.98686646,9 L7.5,9 L7.5,0 L7.5,1.33226763e-15 Z M10.5,0 L39.0131335,0 C40.6627343,0 42,1.34739093 42,2.99686968 L42,6.00313032 C42,7.65825574 40.6501537,9 39.0131335,9 L10.5,9 L10.5,0 L10.5,0 Z"/>
    <path fill-opacity=".9" d="M7.5,12 L2.98686646,12 C1.34984627,12 0,13.3417443 0,14.9968697 L0,18.0031303 C0,19.6526091 1.33726567,21 2.98686646,21 L7.5,21 L7.5,12 L7.5,12 Z M10.5,12 L39.0131335,12 C40.6627343,12 42,13.3473909 42,14.9968697 L42,18.0031303 C42,19.6582557 40.6501537,21 39.0131335,21 L10.5,21 L10.5,12 L10.5,12 Z"/>
    <path fill-opacity=".8" d="M7.5,24 L2.98686646,24 C1.34984627,24 0,25.3417443 0,26.9968697 L0,30.0031303 C0,31.6526091 1.33726567,33 2.98686646,33 L7.5,33 L7.5,24 L7.5,24 Z M10.5,24 L39.0131335,24 C40.6627343,24 42,25.3473909 42,26.9968697 L42,30.0031303 C42,31.6582557 40.6501537,33 39.0131335,33 L10.5,33 L10.5,24 L10.5,24 Z"/>
    <path fill-opacity=".7" d="M7.5,36 L2.98686646,36 C1.34984627,36 0,37.3417443 0,38.9968697 L0,42.0031303 C0,43.6526091 1.33726567,45 2.98686646,45 L7.5,45 L7.5,36 L7.5,36 Z M10.5,36 L39.0131335,36 C40.6627343,36 42,37.3473909 42,38.9968697 L42,42.0031303 C42,43.6582557 40.6501537,45 39.0131335,45 L10.5,45 L10.5,36 L10.5,36 Z"/>
  </g>
</svg>
